PathFileType	4	(X/Y/Z)	./resultDataOpenSim/trcMotMarkerGrf/sub09/qtm-13-06.trc
DataRate	CameraRate	NumFrames	NumMarkers	Units	OrigDataRate	OrigDataStartFrame	OrigNumFrames
250.000000	250.000000	10	24	m	250.000000	60	478
Frame#	Time	L.Toe.Tip			R.Toe.Tip			L.Ankle.Lat			R.Ankle.Lat			L.Ankle.Med			R.Ankle.Med			L.Heel			R.Heel			L.Knee.Lat			R.Knee.Lat			L.Knee.Med			R.Knee.Med			L.Thigh.Upper			R.Thigh.Upper			L.ASIS			R.ASIS			V.Sacral			L.Acromium			R.Acromium			C7			L.Elbow			R.Elbow			L.Wrist.Lat			R.Wrist.Lat
		X1	Y1	Z1	X2	Y2	Z2	X3	Y3	Z3	X4	Y4	Z4	X5	Y5	Z5	X6	Y6	Z6	X7	Y7	Z7	X8	Y8	Z8	X9	Y9	Z9	X10	Y10	Z10	X11	Y11	Z11	X12	Y12	Z12	X13	Y13	Z13	X14	Y14	Z14	X15	Y15	Z15	X16	Y16	Z16	X17	Y17	Z17	X18	Y18	Z18	X19	Y19	Z19	X20	Y20	Z20	X21	Y21	Z21	X22	Y22	Z22	X23	Y23	Z23	X24	Y24	Z24

60	0.236	-1.3856608	0.090105279	-0.054418493	-0.62781247	0.039083267	0.1084262	-1.4011755	0.24666787	-0.088826628	-0.77693704	0.054029261	0.13287254	-1.3773555	0.22894191	0.0047605272	-0.7639293	0.091065308	0.042252653	-1.4604427	0.29284011	-0.038757923	-0.84205347	0.031025373	0.080484474	-1.0265159	0.42354098	-0.11482416	-0.72827706	0.50605611	0.19099798	-1.0127281	0.40937236	0.010461626	-0.73959269	0.49329063	0.06451799	-0.96090952	0.82662622	-0.13122588	-0.9288975	0.85948263	0.24055072	-0.86278585	0.91008487	-0.080728038	-0.85434946	0.94018648	0.15903553	-1.0240933	0.98514043	0.038825544	-0.83221514	1.3807869	-0.11088226	-0.87301712	1.3770402	0.21660248	-0.919593	1.4343825	0.048259607	-0.95171348	1.0265984	-0.19121224	-1.0327291	1.0502692	0.28251714	-0.73827036	0.86056194	-0.16958514	-0.929429	0.80227318	0.33276735
61	0.24	-1.3728481	0.092758195	-0.055210474	-0.62774888	0.039049032	0.10830052	-1.3886947	0.24936999	-0.087945291	-0.77684466	0.05405357	0.132814	-1.3631826	0.23114372	0.0049524205	-0.76364903	0.091031857	0.042153975	-1.4480615	0.29514463	-0.037120994	-0.84210793	0.031039479	0.08043323	-1.0133855	0.423728	-0.11427636	-0.72472201	0.50564466	0.19106763	-1.0020908	0.40940983	0.011331637	-0.73628186	0.49308292	0.064525824	-0.95415444	0.82759748	-0.13098426	-0.92309265	0.86109607	0.2407409	-0.85643586	0.91140292	-0.080464239	-0.8472319	0.94171215	0.15926316	-1.0177796	0.98659593	0.039038798	-0.82617672	1.3820381	-0.11088008	-0.86614151	1.3784677	0.21672599	-0.91329797	1.4358694	0.048651148	-0.94582465	1.0280246	-0.19026712	-1.0254963	1.0512751	0.28329158	-0.73433048	0.85964732	-0.16955489	-0.9198383	0.80375792	0.33247382
62	0.244	-1.3596654	0.095137311	-0.055846483	-0.62769486	0.03901553	0.10818611	-1.3759269	0.25176431	-0.087074274	-0.77675271	0.054082662	0.13272965	-1.3491936	0.23306172	0.005270858	-0.76339053	0.09099697	0.042062276	-1.4354963	0.29711407	-0.035692589	-0.84216405	0.031061482	0.080363399	-1.0002873	0.42406804	-0.11365967	-0.72129344	0.50530262	0.19115942	-0.99119406	0.4095306	0.012272204	-0.73318262	0.49277201	0.064535213	-0.94742848	0.82862102	-0.13062204	-0.91831312	0.86273239	0.24066532	-0.85012452	0.91277893	-0.080213628	-0.84006387	0.94332201	0.15947528	-1.0114924	0.98808417	0.039273639	-0.8201425	1.3833439	-0.11088652	-0.85929673	1.3799539	0.21684446	-0.90694509	1.4373448	0.049004088	-0.93998804	1.0295242	-0.18921983	-1.0182732	1.0523401	0.28408642	-0.73047834	0.85880202	-0.16953915	-0.91026557	0.805351	0.33216329
63	0.248	-1.3461492	0.097237584	-0.056322971	-0.62765529	0.038984157	0.10809348	-1.3629016	0.25383673	-0.086223536	-0.77660663	0.054092998	0.13261532	-1.3357349	0.23460622	0.0058576919	-0.76316869	0.090964345	0.041989424	-1.4227309	0.29877225	-0.034500564	-0.84222111	0.031093368	0.080286475	-0.98717617	0.42455387	-0.11299235	-0.71794427	0.50504866	0.19128966	-0.97930669	0.40981397	0.013154014	-0.73033413	0.49237862	0.064583476	-0.94075109	0.82967336	-0.13033935	-0.91430632	0.8643594	0.24039688	-0.84388023	0.91421812	-0.079971322	-0.83315865	0.94495133	0.15966041	-1.0052185	0.98958866	0.039549249	-0.81412234	1.384703	-0.11089799	-0.85248069	1.3814998	0.21695325	-0.90057639	1.4388437	0.049322029	-0.93421731	1.0310677	-0.18813989	-1.0110555	1.0534609	0.28489493	-0.7266984	0.85802651	-0.16952921	-0.90070121	0.80705371	0.3318312
64	0.252	-1.332306	0.099063737	-0.05665402	-0.62763015	0.038955849	0.10802869	-1.3496637	0.25557972	-0.085397268	-0.77643864	0.054081944	0.13249978	-1.3226543	0.23574747	0.0067271522	-0.76298713	0.090939814	0.041938353	-1.4097795	0.30013005	-0.033477741	-0.84227821	0.031138119	0.080212283	-0.97403923	0.42518871	-0.11229297	-0.71475305	0.50481962	0.19143979	-0.9664397	0.41029953	0.013910011	-0.72771804	0.49194886	0.064730896	-0.93417853	0.83074684	-0.13025126	-0.90999966	0.86600894	0.24019819	-0.83770771	0.91573595	-0.079741623	-0.8268706	0.94654911	0.15979002	-0.99895541	0.99111472	0.039868226	-0.80813628	1.3861173	-0.11091299	-0.84569384	1.3831038	0.21705046	-0.894227	1.4404055	0.049611312	-0.92853692	1.0326263	-0.18710308	-1.0038436	1.0546371	0.28571727	-0.72299574	0.85732354	-0.1695247	-0.89113561	0.80885942	0.3314702
65	0.256	-1.3181202	0.10063343	-0.056854997	-0.62761845	0.038931178	0.10799349	-1.3362569	0.25700684	-0.084597278	-0.77630924	0.054063443	0.13240807	-1.3096008	0.23657296	0.0077614806	-0.76283533	0.090930119	0.041908338	-1.3966711	0.30118993	-0.032532423	-0.84233393	0.03119839	0.080145415	-0.96093213	0.42601062	-0.11160032	-0.71184505	0.50453387	0.19157827	-0.95296207	0.41094768	0.01460133	-0.72525355	0.49153187	0.06499014	-0.92768377	0.83186137	-0.13031898	-0.90447212	0.8677291	0.240278	-0.8315908	0.91734412	-0.079525405	-0.82126103	0.94809294	0.15986191	-0.99270687	0.99269408	0.040211406	-0.80220091	1.3875896	-0.11093163	-0.83894154	1.3847656	0.21713872	-0.88791362	1.4420582	0.049870498	-0.9229713	1.034232	-0.18608133	-0.99664073	1.0558707	0.28655397	-0.71940911	0.85670229	-0.16953036	-0.88157119	0.8107607	0.33107853
66	0.26	-1.3035728	0.10196855	-0.056929929	-0.62761971	0.038910638	0.10798706	-1.3227118	0.25814444	-0.083828314	-0.776244	0.054051414	0.1323434	-1.2964863	0.23721683	0.0088546277	-0.76269451	0.090940002	0.041899037	-1.3834362	0.30194719	-0.031617849	-0.84238565	0.031275018	0.080081635	-0.94790451	0.4270517	-0.11095601	-0.70926202	0.50417298	0.19169123	-0.93926242	0.41172588	0.015312288	-0.72283114	0.49115859	0.065287176	-0.92105237	0.83306822	-0.13037977	-0.89780856	0.86950935	0.24060267	-0.82550072	0.91904154	-0.07930688	-0.81594255	0.94959378	0.15992881	-0.98647626	0.99436069	0.04055161	-0.79632136	1.3891182	-0.11095004	-0.83222789	1.3864841	0.21721829	-0.8816431	1.4438005	0.050096201	-0.91753877	1.0359397	-0.1850042	-0.98944839	1.0571615	0.28740056	-0.71598045	0.85617314	-0.16954482	-0.87201636	0.81275154	0.33066346
67	0.264	-1.2886599	0.10307716	-0.056871216	-0.62763214	0.03889473	0.1080067	-1.3090454	0.25900714	-0.083092068	-0.77623474	0.054051342	0.1323013	-1.2834597	0.2377581	0.0099864657	-0.76255328	0.090964804	0.041908469	-1.3701073	0.30238679	-0.03074294	-0.84242882	0.031366456	0.080010415	-0.93493883	0.42828056	-0.1103511	-0.70692566	0.50378763	0.19178332	-0.92565778	0.41264924	0.016053974	-0.72038069	0.49084328	0.065535024	-0.91397269	0.83443875	-0.13025669	-0.89069515	0.87128018	0.24101565	-0.81938902	0.92082268	-0.079060023	-0.81045333	0.95107504	0.16005715	-0.98026787	0.99611638	0.0408784	-0.79049108	1.3906952	-0.11096229	-0.82556381	1.3882583	0.21729142	-0.8754122	1.4455996	0.050296014	-0.91221995	1.0377408	-0.18389387	-0.98226599	1.0585036	0.2882481	-0.71271675	0.85573855	-0.16956015	-0.86247769	0.81482644	0.33023621
68	0.268	-1.2734123	0.10395034	-0.056654667	-0.62765265	0.038883793	0.10804793	-1.2952597	0.25958874	-0.08238484	-0.77627381	0.054064539	0.13228248	-1.2703917	0.23821867	0.011077292	-0.76242183	0.090988013	0.041927654	-1.3567154	0.30248988	-0.029943504	-0.84245817	0.031468586	0.079923029	-0.92195853	0.42963633	-0.10972891	-0.704731	0.50344058	0.19186995	-0.91226765	0.41373698	0.016787853	-0.71792725	0.49059411	0.065720701	-0.90639935	0.83600688	-0.12990478	-0.88367414	0.87297091	0.24140771	-0.81320273	0.92268703	-0.078767222	-0.80466986	0.95255037	0.16026823	-0.97409138	0.99791593	0.04122152	-0.78469847	1.3923129	-0.11096688	-0.81896896	1.390089	0.2173681	-0.86920317	1.4474192	0.050482195	-0.90690715	1.0395766	-0.18278444	-0.9750936	1.0598888	0.28908861	-0.70958918	0.85539306	-0.16957247	-0.85295984	0.81697852	0.32980501
69	0.272	-1.2579085	0.1045696	-0.056235619	-0.62768062	0.038876961	0.10810767	-1.2813463	0.25987703	-0.081706011	-0.77637461	0.054097501	0.1322904	-1.2566026	0.23861741	0.011879126	-0.76232856	0.090994738	0.041938611	-1.3432826	0.3022422	-0.029245615	-0.84247131	0.031576395	0.079818715	-0.90889752	0.43109945	-0.10905461	-0.70264506	0.50316606	0.19198081	-0.89901071	0.41499516	0.017488152	-0.7155609	0.4904115	0.0658868	-0.89875599	0.83771814	-0.12947294	-0.87696866	0.87455125	0.24173865	-0.80693912	0.92463457	-0.07842709	-0.79873133	0.95402315	0.16053549	-0.96796184	0.9996934	0.041632276	-0.77893308	1.3939683	-0.11096462	-0.81245153	1.3919725	0.21745825	-0.86298989	1.4492387	0.050653535	-0.90147492	1.0414148	-0.18161634	-0.96793098	1.0613114	0.28991807	-0.70654832	0.85512977	-0.16958457	-0.84347074	0.8191999	0.32937207
